<svg width="250" height="284" viewBox="0 0 250 284" fill="none" xmlns="http://www.w3.org/2000/svg">
<path d="M197.114 283.65H81.7302L102.562 275.318C119.019 268.736 129.807 252.799 129.807 235.073V182.689H149.038V235.073C149.038 252.799 159.826 268.736 176.283 275.318L197.114 283.65Z" fill="#D0E8F9"/>
<path d="M28.8462 57.6887L116.529 149.549C125.053 158.477 129.808 170.347 129.808 182.688H149.038C149.038 170.347 153.793 158.477 162.318 149.549L250 57.6887H28.8462Z" fill="#D0E8F9"/>
<path d="M182.691 110.573C168.283 123.482 147.96 123.347 139.562 110.573C129.682 97.7563 111.437 97.7513 98.7683 110.573C94.975 114.131 90.8354 116.66 86.6482 118.241L116.528 149.549C125.052 158.477 129.807 170.347 129.807 182.688H149.038C149.038 170.347 153.792 158.477 162.317 149.549L208.509 101.155C199.744 100.357 190.037 103.458 182.691 110.573Z" fill="#00B561"/>
<path d="M28.8462 57.6887H67.3077C67.3077 39.1022 52.2403 24.0349 33.6538 24.0349C15.0674 24.0349 0 39.1022 0 57.6887C0 76.2751 15.0674 91.3425 33.6538 91.3425C41.4133 91.3425 48.5384 88.6888 54.2309 84.28L28.8462 57.6887Z" fill="#FFD06C"/>
<path d="M149.038 144.229C148.499 144.229 147.946 144.133 147.408 143.941C144.913 143.042 143.615 140.291 144.514 137.792L187.783 17.6C188.302 16.1623 189.466 15.0615 190.927 14.6239L239.004 0.200792C241.552 -0.553768 244.23 0.883332 244.989 3.4218C245.749 5.96526 244.307 8.64777 241.763 9.4123L196.008 23.1384L153.561 141.047C152.855 143.008 151.009 144.229 149.038 144.229Z" fill="#E1705C"/>
</svg>
