<svg width="250" height="250" viewBox="0 0 250 250" fill="none" xmlns="http://www.w3.org/2000/svg">
<g clip-path="url(#clip0_88_93)">
<path d="M237.069 250H12.9311C5.78904 250 0 244.211 0 237.069V12.9311C0 5.78904 5.78904 0 12.9311 0H237.069C244.211 0 250 5.78904 250 12.9311V237.069C250 244.211 244.211 250 237.069 250Z" fill="#00B561"/>
<path d="M146.552 112.069V159.483H103.448V112.069H77.5861V232.759H103.448V185.345H146.552V232.759H172.414V112.069H146.552Z" fill="white"/>
<path d="M125 17.3065L133.621 38.7938H159.483L137.931 56.0347L146.552 81.8969L125 64.6554L103.448 81.8969L112.069 56.0347L90.5171 38.7938H116.379L125 17.3065Z" fill="white"/>
<path d="M47.414 25.8622L56.0347 47.414H81.8964L60.3451 64.5904L68.9653 90.4525L47.414 73.2757L25.8622 90.4525L34.4829 64.5904L12.9311 47.414H38.7933L47.414 25.8622Z" fill="white"/>
<path d="M202.586 25.8622L211.207 47.414H237.069L215.517 64.5904L224.138 90.4525L202.586 73.2757L181.035 90.4525L189.655 64.5904L168.104 47.414H193.965L202.586 25.8622Z" fill="white"/>
</g>
<defs>
<clipPath id="clip0_88_93">
<rect width="250" height="250" fill="white"/>
</clipPath>
</defs>
</svg>
