<svg width="252" height="256" viewBox="0 0 252 256" fill="none" xmlns="http://www.w3.org/2000/svg">
<path d="M25.8621 68.9649C25.8621 76.1072 20.0734 81.8959 12.931 81.8959C5.78866 81.8959 0 76.1072 0 68.9649C0 61.8225 5.78866 56.0338 12.931 56.0338C20.0734 56.0338 25.8621 61.823 25.8621 68.9649Z" fill="#E6EEF3"/>
<path d="M47.4135 60.3445H30.1722H22.504C24.5684 62.6378 25.8616 65.6377 25.8616 68.9654C25.8616 72.2931 24.5684 75.293 22.504 77.5863H34.8749L43.1033 107.759H61.78L47.4135 60.3445Z" fill="#CAD3DB"/>
<path d="M235.128 39.2351C233.736 36.2696 232.757 33.1318 232.757 29.8556V8.64867C232.757 6.25643 230.818 4.31677 228.43 4.31677H211.227C208.835 4.31677 206.895 6.25643 206.895 8.64867V29.8556C206.895 33.1313 205.921 36.2696 204.529 39.2351C203.249 41.9507 202.584 44.9162 202.584 47.9207V103.429C202.584 105.821 204.524 107.757 206.916 107.757H232.74C235.127 107.757 237.067 105.821 237.067 103.429V47.9202C237.067 44.9157 236.404 41.9507 235.128 39.2351Z" fill="#00B561"/>
<path d="M150.862 21.5514C148.478 21.5514 146.552 19.6249 146.552 17.2412V4.31018C146.552 1.92652 148.478 0 150.862 0C153.246 0 155.172 1.92652 155.172 4.31018V17.2412C155.173 19.6244 153.246 21.5514 150.862 21.5514Z" fill="#CAD3DB"/>
<path d="M232.759 21.5514H206.897V8.62036C206.897 6.24125 208.828 4.31018 211.207 4.31018H228.448C230.827 4.31018 232.758 6.24125 232.758 8.62036L232.759 21.5514Z" fill="#198D71"/>
<path d="M202.586 47.9221C202.586 45.293 203.125 42.7022 204.103 40.2756C190.745 26.1247 171.862 17.2412 150.862 17.2412C110.392 17.2412 77.5857 50.0472 77.5857 90.5173H202.586V47.9221Z" fill="#E6EEF3"/>
<path d="M202.586 103.429V90.5193H73.2755L81.8964 107.761H206.918C204.526 107.761 202.586 105.821 202.586 103.429Z" fill="#CAD3DB"/>
<path d="M43.1018 206.896H249.999V107.758H43.1018V206.896Z" fill="#E6EEF3"/>
<path d="M202.586 211.206C200.202 211.206 198.276 209.28 198.276 206.896V176.724C198.276 174.34 200.202 172.414 202.586 172.414C204.97 172.414 206.896 174.34 206.896 176.724V206.896C206.897 209.28 204.97 211.206 202.586 211.206Z" fill="#CAD3DB"/>
<path d="M185.345 211.206C182.961 211.206 181.035 209.28 181.035 206.896V193.965C181.035 191.581 182.961 189.655 185.345 189.655C187.729 189.655 189.655 191.581 189.655 193.965V206.896C189.655 209.28 187.729 211.206 185.345 211.206Z" fill="#CAD3DB"/>
<path d="M219.828 211.206C217.444 211.206 215.518 209.28 215.518 206.896V198.275C215.518 195.892 217.444 193.965 219.828 193.965C222.211 193.965 224.138 195.892 224.138 198.275V206.896C224.138 209.28 222.211 211.206 219.828 211.206Z" fill="#CAD3DB"/>
<path d="M112.069 211.206C109.685 211.206 107.759 209.28 107.759 206.896V189.655C107.759 187.271 109.685 185.345 112.069 185.345C114.452 185.345 116.379 187.271 116.379 189.655V206.896C116.379 209.28 114.452 211.206 112.069 211.206Z" fill="#CAD3DB"/>
<path d="M77.5863 211.206C75.2026 211.206 73.2761 209.28 73.2761 206.896V176.724C73.2761 174.34 75.2026 172.414 77.5863 172.414C79.97 172.414 81.8965 174.34 81.8965 176.724V206.896C81.8965 209.28 79.97 211.206 77.5863 211.206Z" fill="#CAD3DB"/>
<path d="M94.8275 211.206C92.4439 211.206 90.5173 209.28 90.5173 206.896V193.965C90.5173 191.581 92.4439 189.655 94.8275 189.655C97.2112 189.655 99.1377 191.581 99.1377 193.965V206.896C99.1377 209.28 97.2112 211.206 94.8275 211.206Z" fill="#CAD3DB"/>
<path d="M60.3446 193.965C57.9609 193.965 56.0344 195.892 56.0344 198.275V206.896H64.6553V198.275C64.6553 195.892 62.7283 193.965 60.3446 193.965Z" fill="#CAD3DB"/>
<path d="M73.2755 239.224C73.2755 247.556 66.5211 254.31 58.1892 254.31C49.8572 254.31 43.1033 247.556 43.1033 239.224C43.1033 230.892 49.8577 224.137 58.1897 224.137C66.5216 224.137 73.2755 230.892 73.2755 239.224Z" fill="#667D8C"/>
<path d="M73.2755 239.224C73.2755 247.556 66.5211 254.31 58.1892 254.31C49.8572 254.31 43.1033 247.556 43.1033 239.224C43.1033 230.892 49.8577 224.137 58.1897 224.137C66.5216 224.137 73.2755 230.892 73.2755 239.224Z" stroke="#BDC3C7" stroke-width="3.17166"/>
<path d="M60.343 224.137H232.757V206.896H60.343V224.137Z" fill="#556080"/>
<path d="M250 239.224C250 247.556 243.245 254.31 234.914 254.31C226.582 254.31 219.827 247.556 219.827 239.224C219.827 230.892 226.582 224.137 234.914 224.137C243.245 224.137 250 230.892 250 239.224Z" fill="#667D8C"/>
<path d="M250 239.224C250 247.556 243.245 254.31 234.914 254.31C226.582 254.31 219.827 247.556 219.827 239.224C219.827 230.892 226.582 224.137 234.914 224.137C243.245 224.137 250 230.892 250 239.224Z" stroke="#BDC3C7" stroke-width="3.17166"/>
<path d="M202.584 64.6547H237.067V47.4135H202.584V64.6547Z" fill="#198D71"/>
<path d="M97.5425 77.5857C97.103 77.5857 96.6545 77.5165 96.2105 77.3746C93.9476 76.6417 92.7105 74.211 93.4435 71.9436C101.538 46.9609 124.612 30.1718 150.862 30.1718C153.246 30.1718 155.172 32.0983 155.172 34.4819C155.172 36.8656 153.246 38.7921 150.862 38.7921C128.362 38.7921 108.586 53.1845 101.642 74.6065C101.051 76.4265 99.3614 77.5857 97.5425 77.5857Z" fill="#CAD3DB"/>
</svg>
